<svg width="45" height="45" viewBox="0 0 45 45" fill="none" xmlns="http://www.w3.org/2000/svg">
<path d="M30.1136 4.60128C30.6408 5.1287 30.937 5.84394 30.937 6.58972C30.937 7.3355 30.6408 8.05074 30.1136 8.57816L16.1917 22.5001L30.1136 36.4218C30.6259 36.9523 30.9094 37.6628 30.903 38.4002C30.8965 39.1376 30.6007 39.8431 30.0793 40.3645C29.5578 40.886 28.8525 41.1817 28.115 41.1881C27.3776 41.1945 26.6671 40.911 26.1367 40.3987L10.2264 24.4885C9.69905 23.961 9.40285 23.2458 9.40285 22.5001C9.40285 21.7542 9.69905 21.039 10.2264 20.5116L26.1367 4.60128C26.6641 4.07403 27.3794 3.77783 28.1251 3.77783C28.8708 3.77783 29.5861 4.07403 30.1136 4.60128Z" fill="white"/>
</svg>
