<svg width="682" height="603" viewBox="0 0 682 603" fill="none" xmlns="http://www.w3.org/2000/svg">
<g opacity="0.6">
<path d="M409.778 775.827C406.731 775.827 403.693 775.787 400.665 775.709L400.021 800.701C393.501 800.533 387.023 800.197 380.59 799.697L382.527 774.773C376.461 774.301 370.442 773.674 364.471 772.895L361.237 797.685C354.777 796.843 348.368 795.834 342.016 794.664L346.546 770.078C340.574 768.977 334.657 767.724 328.798 766.323L322.981 790.636C316.651 789.122 310.384 787.445 304.184 785.612L311.275 761.638C305.46 759.918 299.708 758.05 294.024 756.037L285.678 779.602C279.548 777.432 273.492 775.104 267.515 772.626L277.092 749.533C271.494 747.211 265.969 744.747 260.523 742.145L249.745 764.702C243.881 761.9 238.103 758.949 232.414 755.854L244.362 733.894C239.04 730.999 233.801 727.967 228.651 724.805L215.569 746.108C210.034 742.71 204.596 739.17 199.258 735.494L213.436 714.904C208.447 711.469 203.553 707.906 198.757 704.221L183.524 724.044C178.377 720.089 173.337 716.002 168.408 711.788L184.653 692.786C180.051 688.851 175.553 684.798 171.163 680.632L153.951 698.763C149.246 694.297 144.658 689.709 140.192 685.004L158.323 667.792C154.157 663.402 150.104 658.904 146.169 654.302L127.167 670.547C122.953 665.618 118.866 660.578 114.911 655.431L134.734 640.198C131.049 635.402 127.486 630.508 124.051 625.519L103.461 639.697C99.785 634.359 96.2454 628.921 92.8467 623.386L114.15 610.304C110.988 605.154 107.956 599.915 105.061 594.593L83.1006 606.541C80.0055 600.852 77.0547 595.074 74.2531 589.21L96.8103 578.432C94.2079 572.986 91.7438 567.462 89.4224 561.863L66.3293 571.44C63.8506 565.463 61.5234 559.407 59.3525 553.277L82.9183 544.931C80.9054 539.247 79.0367 533.495 77.3165 527.68L53.3433 534.771C51.5095 528.571 49.833 522.304 48.3185 515.974L72.6323 510.157C71.2305 504.298 69.9774 498.381 68.8773 492.409L44.2911 496.939C43.1209 490.587 42.1122 484.178 41.2695 477.718L66.0595 474.484C65.2807 468.513 64.6536 462.493 64.1824 456.428L39.2575 458.365C38.7578 451.932 38.4218 445.454 38.2538 438.934L63.2455 438.289C63.1675 435.262 63.1282 432.224 63.1282 429.177C63.1282 426.129 63.1675 423.091 63.2455 420.064L38.2538 419.42C38.4218 412.899 38.7578 406.421 39.2575 399.988L64.1824 401.925C64.6536 395.86 65.2807 389.84 66.0595 383.869L41.2695 380.636C42.1122 374.175 43.1209 367.766 44.2911 361.415L68.8773 365.944C69.9774 359.972 71.2305 354.055 72.6323 348.196L48.3185 342.379C49.833 336.049 51.5094 329.782 53.3432 323.582L77.3165 330.673C79.0367 324.858 80.9054 319.106 82.9183 313.422L59.3525 305.076C61.5234 298.947 63.8505 292.891 66.3292 286.913L89.4224 296.49C91.7438 290.892 94.2079 285.367 96.8102 279.921L74.253 269.143C77.0547 263.279 80.0055 257.501 83.1006 251.812L105.061 263.76C107.956 258.438 110.988 253.199 114.15 248.05L92.8466 234.967C96.2453 229.433 99.785 223.994 103.46 218.656L124.051 232.834C127.486 227.845 131.049 222.951 134.734 218.155L114.911 202.922C118.866 197.775 122.953 192.735 127.166 187.806L146.169 204.051C150.104 199.449 154.157 194.951 158.323 190.561L140.192 173.349C144.658 168.644 149.246 164.056 153.951 159.59L171.163 177.721C175.552 173.555 180.051 169.502 184.653 165.567L168.408 146.565C173.337 142.351 178.377 138.265 183.524 134.31L198.757 154.133C203.553 150.447 208.447 146.885 213.436 143.449L199.258 122.859C204.596 119.183 210.034 115.644 215.569 112.245L228.651 133.549C233.801 130.386 239.04 127.355 244.362 124.459L232.414 102.499C238.103 99.4037 243.881 96.4529 249.744 93.6512L260.523 116.208C265.969 113.606 271.493 111.142 277.091 108.821L267.515 85.7274C273.492 83.2487 279.548 80.9216 285.678 78.7507L294.024 102.316C299.708 100.304 305.46 98.4348 311.275 96.7146L304.184 72.7414C310.384 70.9076 316.651 69.2311 322.981 67.7166L328.798 92.0304C334.657 90.6287 340.574 89.3756 346.546 88.2755L342.016 63.6892C348.368 62.5191 354.777 61.5104 361.237 60.6677L364.471 85.4577C370.442 84.6788 376.461 84.0518 382.526 83.5806L380.59 58.6557C387.023 58.156 393.501 57.82 400.021 57.652L400.665 82.6437C403.693 82.5656 406.731 82.5264 409.778 82.5264C412.826 82.5264 415.864 82.5656 418.891 82.6437L419.535 57.652C426.056 57.82 432.534 58.156 438.967 58.6557L437.03 83.5806C443.095 84.0518 449.115 84.6788 455.086 85.4576L458.319 60.6677C464.78 61.5104 471.188 62.5191 477.54 63.6892L473.011 88.2755C478.982 89.3756 484.9 90.6286 490.759 92.0304L496.576 67.7166C502.906 69.2311 509.173 70.9076 515.373 72.7414L508.282 96.7146C514.097 98.4348 519.849 100.304 525.533 102.316L533.878 78.7506C540.008 80.9215 546.064 83.2487 552.042 85.7274L542.465 108.821C548.063 111.142 553.588 113.606 559.034 116.208L569.812 93.6512C575.676 96.4528 581.454 99.4036 587.143 102.499L575.195 124.459C580.517 127.355 585.755 130.386 590.905 133.549L603.988 112.245C609.522 115.643 614.961 119.183 620.299 122.859L606.121 143.449C611.109 146.884 616.004 150.447 620.8 154.132L636.033 134.31C641.18 138.265 646.22 142.351 651.149 146.565L634.904 165.567C639.506 169.502 644.004 173.555 648.394 177.721L665.605 159.59C670.31 164.056 674.899 168.644 679.365 173.349L661.233 190.561C665.4 194.951 669.453 199.449 673.388 204.051L692.39 187.806C696.604 192.735 700.69 197.775 704.645 202.922L684.822 218.155C688.508 222.951 692.07 227.845 695.506 232.834L716.096 218.656C719.772 223.994 723.311 229.433 726.71 234.967L705.406 248.049C708.569 253.199 711.6 258.438 714.496 263.76L736.456 251.812C739.551 257.501 742.502 263.279 745.304 269.143L722.746 279.921C725.349 285.367 727.813 290.892 730.134 296.49L753.228 286.913C755.706 292.891 758.033 298.947 760.204 305.076L736.638 313.422C738.651 319.106 740.52 324.858 742.24 330.673L766.214 323.582C768.047 329.782 769.724 336.049 771.238 342.379L746.924 348.196C748.326 354.055 749.579 359.972 750.679 365.944L775.266 361.415C776.436 367.766 777.445 374.175 778.287 380.635L753.497 383.869C754.276 389.84 754.903 395.86 755.374 401.925L780.299 399.988C780.799 406.421 781.135 412.899 781.303 419.42L756.311 420.064C756.389 423.091 756.429 426.129 756.429 429.177C756.429 432.224 756.389 435.262 756.311 438.289L781.303 438.934C781.135 445.454 780.799 451.932 780.299 458.365L755.374 456.428C754.903 462.493 754.276 468.513 753.497 474.484L778.287 477.717C777.445 484.178 776.436 490.587 775.266 496.938L750.679 492.409C749.579 498.381 748.326 504.298 746.925 510.157L771.238 515.974C769.724 522.304 768.047 528.571 766.214 534.771L742.24 527.68C740.52 533.495 738.651 539.247 736.639 544.931L760.204 553.277C758.033 559.406 755.706 565.462 753.228 571.44L730.134 561.863C727.813 567.461 725.349 572.986 722.747 578.432L745.304 589.21C742.502 595.074 739.551 600.852 736.456 606.541L714.496 594.593C711.6 599.915 708.569 605.154 705.406 610.304L726.71 623.386C723.311 628.92 719.772 634.359 716.096 639.697L695.506 625.519C692.07 630.508 688.508 635.402 684.822 640.198L704.645 655.431C700.69 660.578 696.604 665.618 692.39 670.547L673.388 654.302C669.453 658.904 665.4 663.402 661.233 667.792L679.365 685.004C674.899 689.709 670.31 694.297 665.605 698.763L648.394 680.632C644.004 684.798 639.506 688.851 634.904 692.786L651.149 711.788C646.22 716.002 641.18 720.089 636.033 724.044L620.8 704.221C616.004 707.906 611.109 711.469 606.121 714.904L620.299 735.494C614.961 739.17 609.522 742.71 603.988 746.108L590.905 724.805C585.755 727.967 580.517 730.998 575.195 733.894L587.143 755.854C581.454 758.949 575.676 761.9 569.812 764.702L559.034 742.145C553.588 744.747 548.063 747.211 542.465 749.533L552.042 772.626C546.064 775.104 540.008 777.432 533.879 779.602L525.533 756.037C519.849 758.049 514.097 759.918 508.282 761.638L515.373 785.612C509.173 787.445 502.906 789.122 496.576 790.636L490.759 766.323C484.9 767.724 478.983 768.977 473.011 770.078L477.54 794.664C471.188 795.834 464.78 796.843 458.319 797.685L455.086 772.895C449.115 773.674 443.095 774.301 437.03 774.773L438.967 799.697C432.534 800.197 426.056 800.533 419.535 800.701L418.891 775.709C415.864 775.787 412.826 775.827 409.778 775.827Z" stroke="url(#paint0_linear_28_215)" stroke-opacity="0.7" stroke-width="50" stroke-dasharray="20 20"/>
<path d="M348.73 225.69V500.401H603.094" stroke="url(#paint1_linear_28_215)" stroke-opacity="0.7" stroke-width="50" stroke-linecap="round"/>
</g>
<defs>
<linearGradient id="paint0_linear_28_215" x1="60" y1="58" x2="664" y2="801" gradientUnits="userSpaceOnUse">
<stop stop-color="#821912"/>
<stop offset="0.0001" stop-color="#E72121"/>
<stop offset="0.786458" stop-color="#821912"/>
</linearGradient>
<linearGradient id="paint1_linear_28_215" x1="264" y1="205" x2="556" y2="577" gradientUnits="userSpaceOnUse">
<stop stop-color="#821912"/>
<stop offset="0.0001" stop-color="#821912"/>
<stop offset="0.791667" stop-color="#E72121"/>
</linearGradient>
</defs>
</svg>
