<svg width="735" height="739" viewBox="0 0 735 739" fill="none" xmlns="http://www.w3.org/2000/svg">
<g opacity="0.6">
<path d="M228.565 900.484C225.428 900.484 222.299 900.448 219.18 900.377L218.612 925.371C211.967 925.22 205.36 924.918 198.794 924.468L200.501 899.526C194.256 899.099 188.052 898.53 181.89 897.822L179.039 922.659C172.442 921.902 165.89 920.995 159.388 919.942L163.384 895.263C157.214 894.264 151.091 893.126 145.019 891.851L139.883 916.318C133.39 914.955 126.95 913.445 120.567 911.792L126.835 887.59C120.789 886.025 114.799 884.323 108.866 882.487L101.478 906.371C95.1417 904.411 88.8677 902.308 82.6601 900.066L91.1518 876.553C85.2814 874.433 79.474 872.18 73.7331 869.8L64.1567 892.893C58.0343 890.354 51.9833 887.678 46.0076 884.868L56.6463 862.244C51.0011 859.589 45.4268 856.808 39.9272 853.903L28.2511 876.009C22.394 872.915 16.617 869.69 10.9242 866.337L23.6107 844.795C18.2369 841.631 12.9423 838.345 7.73068 834.942L-5.93694 855.875C-11.4805 852.256 -16.9353 848.512 -22.2974 844.647L-7.67967 824.366C-12.7378 820.72 -17.7085 816.961 -22.5881 813.09L-38.1235 832.677C-43.3083 828.565 -48.396 824.335 -53.3824 819.993L-36.9635 801.14C-41.6641 797.046 -46.2694 792.846 -50.7755 788.542L-68.0427 806.621C-72.8264 802.052 -77.5047 797.373 -82.0736 792.59L-63.9948 775.322C-68.2986 770.816 -72.4993 766.211 -76.5932 761.51L-95.4457 777.929C-99.7885 772.943 -104.018 767.855 -108.13 762.67L-88.5433 747.135C-92.4135 742.256 -96.1734 737.285 -99.8191 732.227L-120.1 746.844C-123.965 741.482 -127.709 736.028 -131.329 730.484L-110.395 716.816C-113.798 711.605 -117.084 706.31 -120.248 700.936L-141.79 713.623C-145.143 707.93 -148.368 702.153 -151.462 696.296L-129.356 684.62C-132.261 679.12 -135.042 673.546 -137.697 667.901L-160.321 678.539C-163.131 672.564 -165.807 666.513 -168.346 660.39L-145.253 650.814C-147.633 645.073 -149.886 639.266 -152.006 633.395L-175.519 641.887C-177.761 635.679 -179.864 629.405 -181.824 623.069L-157.94 615.681C-159.775 609.749 -161.478 603.758 -163.043 597.712L-187.245 603.98C-188.898 597.597 -190.408 591.158 -191.771 584.664L-167.304 579.528C-168.579 573.456 -169.717 567.333 -170.716 561.163L-195.395 565.159C-196.448 558.657 -197.355 552.105 -198.112 545.509L-173.275 542.657C-173.983 536.495 -174.552 530.291 -174.979 524.046L-199.921 525.754C-200.371 519.187 -200.673 512.58 -200.824 505.935L-175.83 505.367C-175.901 502.248 -175.937 499.12 -175.937 495.982C-175.937 492.845 -175.901 489.717 -175.83 486.598L-200.824 486.029C-200.673 479.385 -200.371 472.778 -199.921 466.211L-174.979 467.919C-174.552 461.674 -173.983 455.469 -173.275 449.308L-198.112 446.456C-197.355 439.859 -196.448 433.308 -195.395 426.806L-170.716 430.801C-169.717 424.632 -168.579 418.509 -167.304 412.437L-191.771 407.301C-190.408 400.807 -188.898 394.367 -187.245 387.985L-163.044 394.253C-161.478 388.207 -159.776 382.216 -157.941 376.284L-181.824 368.896C-179.864 362.559 -177.761 356.285 -175.519 350.078L-152.006 358.569C-149.886 352.699 -147.634 346.892 -145.253 341.151L-168.346 331.574C-165.807 325.452 -163.131 319.401 -160.321 313.425L-137.697 324.064C-135.043 318.419 -132.261 312.844 -129.356 307.345L-151.462 295.669C-148.368 289.812 -145.143 284.035 -141.79 278.342L-120.249 291.028C-117.084 285.655 -113.798 280.36 -110.395 275.148L-131.329 261.481C-127.709 255.937 -123.965 250.482 -120.1 245.12L-99.8191 259.738C-96.1734 254.68 -92.4136 249.709 -88.5434 244.83L-108.13 229.294C-104.018 224.109 -99.7886 219.022 -95.4458 214.035L-76.5933 230.454C-72.4994 225.754 -68.2987 221.148 -63.9949 216.642L-82.0737 199.375C-77.5048 194.591 -72.8265 189.913 -68.0428 185.344L-50.7756 203.423C-46.2695 199.119 -41.6642 194.918 -36.9636 190.825L-53.3825 171.972C-48.3961 167.629 -43.3084 163.4 -38.1236 159.287L-22.5882 178.874C-17.7086 175.004 -12.7379 171.244 -7.67976 167.599L-22.2975 147.318C-16.9355 143.453 -11.4806 139.709 -5.93706 136.089L7.73056 157.022C12.9422 153.62 18.2368 150.334 23.6105 147.169L10.924 125.627C16.6169 122.275 22.3938 119.05 28.2509 115.956L39.9271 138.062C45.4266 135.157 51.0009 132.375 56.6462 129.721L46.0074 107.097C51.9831 104.287 58.0341 101.611 64.1566 99.0718L73.7329 122.165C79.4738 119.784 85.2812 117.532 91.1516 115.412L82.6599 91.8985C88.8674 89.6567 95.1415 87.5539 101.478 85.5938L108.866 109.477C114.798 107.642 120.789 105.94 126.835 104.374L120.567 80.1727C126.949 78.5198 133.389 77.0099 139.883 75.6467L145.019 100.113C151.091 98.8388 157.214 97.7003 163.383 96.7013L159.388 72.0227C165.89 70.9698 172.441 70.063 179.038 69.3055L181.89 94.1424C188.051 93.435 194.256 92.8658 200.501 92.4383L198.793 67.4967C205.36 67.0471 211.967 66.7451 218.611 66.594L219.18 91.5876C222.299 91.5166 225.427 91.481 228.565 91.481C231.702 91.481 234.83 91.5166 237.949 91.5875L238.517 66.594C245.162 66.7451 251.769 67.0471 258.335 67.4966L256.628 92.4382C262.873 92.8658 269.077 93.4349 275.239 94.1423L278.091 69.3055C284.687 70.0629 291.239 70.9698 297.741 72.0227L293.745 96.7013C299.915 97.7003 306.038 98.8388 312.11 100.113L317.246 75.6467C323.74 77.0099 330.18 78.5197 336.562 80.1727L330.294 104.374C336.34 105.94 342.331 107.642 348.263 109.477L355.651 85.5937C361.987 87.5538 368.262 89.6566 374.469 91.8984L365.977 115.412C371.848 117.532 377.655 119.784 383.396 122.165L392.972 99.0717C399.095 101.611 405.146 104.287 411.122 107.097L400.483 129.72C406.128 132.375 411.702 135.157 417.202 138.062L428.878 115.956C434.735 119.049 440.512 122.275 446.205 125.627L433.518 147.169C438.892 150.334 444.187 153.62 449.399 157.022L463.066 136.089C468.61 139.709 474.065 143.453 479.427 147.318L464.809 167.599C469.867 171.244 474.838 175.004 479.717 178.874L495.253 159.287C500.438 163.4 505.525 167.629 510.512 171.972L494.093 190.824C498.793 194.918 503.399 199.119 507.905 203.423L525.172 185.344C529.956 189.913 534.634 194.591 539.203 199.375L521.124 216.642C525.428 221.148 529.629 225.753 533.722 230.454L552.575 214.035C556.918 219.022 561.147 224.109 565.26 229.294L545.673 244.829C549.543 249.709 553.303 254.68 556.948 259.738L577.229 245.12C581.094 250.482 584.838 255.937 588.458 261.481L567.525 275.148C570.927 280.36 574.213 285.654 577.378 291.028L598.92 278.342C602.272 284.035 605.497 289.811 608.591 295.669L586.485 307.345C589.39 312.844 592.172 318.419 594.826 324.064L617.45 313.425C620.26 319.401 622.936 325.452 625.475 331.574L602.382 341.151C604.763 346.892 607.015 352.699 609.135 358.569L632.648 350.078C634.89 356.285 636.993 362.559 638.953 368.896L615.07 376.284C616.905 382.216 618.607 388.207 620.173 394.253L644.374 387.985C646.027 394.367 647.537 400.807 648.9 407.301L624.433 412.437C625.708 418.509 626.847 424.631 627.846 430.801L652.524 426.805C653.577 433.308 654.484 439.859 655.241 446.456L630.405 449.308C631.112 455.469 631.681 461.674 632.109 467.919L657.05 466.211C657.5 472.778 657.802 479.385 657.953 486.029L632.959 486.597C633.03 489.717 633.066 492.845 633.066 495.982C633.066 499.119 633.03 502.248 632.959 505.367L657.953 505.935C657.802 512.579 657.5 519.187 657.05 525.753L632.109 524.046C631.681 530.29 631.112 536.495 630.405 542.657L655.241 545.508C654.484 552.105 653.577 558.656 652.524 565.159L627.846 561.163C626.847 567.333 625.708 573.456 624.434 579.527L648.9 584.664C647.537 591.157 646.027 597.597 644.374 603.979L620.173 597.712C618.607 603.757 616.905 609.748 615.07 615.681L638.953 623.068C636.993 629.405 634.89 635.679 632.648 641.887L609.135 633.395C607.015 639.266 604.763 645.073 602.382 650.814L625.475 660.39C622.936 666.513 620.26 672.564 617.45 678.539L594.826 667.901C592.172 673.546 589.39 679.12 586.485 684.62L608.591 696.296C605.497 702.153 602.272 707.93 598.92 713.623L577.378 700.936C574.213 706.31 570.927 711.605 567.525 716.816L588.458 730.484C584.838 736.027 581.094 741.482 577.229 746.844L556.948 732.227C553.303 737.285 549.543 742.255 545.673 747.135L565.26 762.67C561.147 767.855 556.918 772.943 552.575 777.929L533.722 761.51C529.629 766.211 525.428 770.816 521.124 775.322L539.203 792.59C534.634 797.373 529.956 802.052 525.172 806.621L507.905 788.542C503.399 792.846 498.793 797.046 494.093 801.14L510.512 819.993C505.525 824.335 500.438 828.565 495.253 832.677L479.717 813.09C474.838 816.96 469.867 820.72 464.809 824.366L479.427 844.647C474.065 848.512 468.61 852.256 463.066 855.875L449.399 834.942C444.187 838.345 438.892 841.631 433.519 844.795L446.205 866.337C440.512 869.69 434.735 872.915 428.878 876.009L417.202 853.903C411.703 856.808 406.128 859.589 400.483 862.244L411.122 884.867C405.146 887.678 399.095 890.354 392.973 892.893L383.396 869.8C377.655 872.18 371.848 874.432 365.978 876.552L374.469 900.066C368.262 902.308 361.988 904.411 355.651 906.371L348.263 882.487C342.331 884.322 336.34 886.025 330.294 887.59L336.562 911.792C330.18 913.445 323.74 914.955 317.246 916.318L312.11 891.851C306.038 893.126 299.916 894.264 293.746 895.263L297.742 919.942C291.239 920.995 284.688 921.902 278.091 922.659L275.239 897.822C269.078 898.53 262.873 899.099 256.628 899.526L258.336 924.468C251.769 924.918 245.162 925.22 238.518 925.371L237.949 900.377C234.83 900.448 231.702 900.484 228.565 900.484Z" stroke="url(#paint0_linear_28_251)" stroke-opacity="0.7" stroke-width="50" stroke-dasharray="20 20"/>
<path d="M158.014 260.821V578.294H451.972" stroke="url(#paint1_linear_28_251)" stroke-opacity="0.7" stroke-width="50" stroke-linecap="round"/>
</g>
<defs>
<linearGradient id="paint0_linear_28_251" x1="-175.66" y1="67.0283" x2="522.358" y2="925.684" gradientUnits="userSpaceOnUse">
<stop offset="0.014011"/>
<stop offset="0.484375" stop-color="#030227"/>
<stop offset="0.96875" stop-color="#21C3E7"/>
</linearGradient>
<linearGradient id="paint1_linear_28_251" x1="60.0943" y1="236.91" x2="397.547" y2="666.816" gradientUnits="userSpaceOnUse">
<stop stop-color="#030227"/>
<stop offset="0.0001"/>
<stop offset="0.485078" stop-color="#030227"/>
<stop offset="0.911458" stop-color="#21C3E7"/>
</linearGradient>
</defs>
</svg>
