<svg width="664" height="707" viewBox="0 0 664 707" fill="none" xmlns="http://www.w3.org/2000/svg">
<g opacity="0.6">
<path d="M225.778 634.827C222.731 634.827 219.693 634.787 216.665 634.709L216.021 659.701C209.501 659.533 203.023 659.197 196.59 658.697L198.527 633.773C192.461 633.301 186.442 632.674 180.471 631.895L177.237 656.685C170.777 655.843 164.368 654.834 158.016 653.664L162.546 629.078C156.574 627.977 150.657 626.724 144.798 625.323L138.981 649.636C132.651 648.122 126.384 646.445 120.184 644.612L127.275 620.638C121.46 618.918 115.708 617.05 110.024 615.037L101.678 638.602C95.5484 636.432 89.4925 634.104 83.5152 631.626L93.0915 608.533C87.4935 606.211 81.9691 603.747 76.5229 601.145L65.7445 623.702C59.8812 620.9 54.1027 617.949 48.4141 614.854L60.3622 592.894C55.0398 589.999 49.8013 586.967 44.6514 583.805L31.569 605.108C26.0344 601.71 20.5957 598.17 15.2578 594.494L29.436 573.904C24.4473 570.469 19.5526 566.906 14.7568 563.221L-0.476364 583.044C-5.62305 579.089 -10.6632 575.002 -15.5919 570.788L0.653137 551.786C-3.94923 547.851 -8.44751 543.798 -12.8369 539.632L-30.0487 557.763C-34.7537 553.297 -39.3419 548.709 -43.8083 544.004L-25.6767 526.792C-29.8434 522.402 -33.8964 517.904 -37.8309 513.302L-56.8335 529.547C-61.0469 524.618 -65.1336 519.578 -69.0886 514.431L-49.2657 499.198C-52.9511 494.402 -56.5137 489.508 -59.9488 484.519L-80.5395 498.697C-84.215 493.359 -87.7547 487.921 -91.1534 482.386L-69.8496 469.304C-73.0121 464.154 -76.0436 458.915 -78.9394 453.593L-100.899 465.541C-103.994 459.852 -106.945 454.074 -109.747 448.21L-87.1898 437.432C-89.7921 431.986 -92.2562 426.462 -94.5776 420.863L-117.671 430.44C-120.149 424.463 -122.477 418.407 -124.648 412.277L-101.082 403.931C-103.095 398.247 -104.963 392.495 -106.684 386.68L-130.657 393.771C-132.491 387.571 -134.167 381.304 -135.682 374.974L-111.368 369.157C-112.77 363.298 -114.023 357.381 -115.123 351.409L-139.709 355.939C-140.879 349.587 -141.888 343.178 -142.731 336.718L-117.941 333.484C-118.719 327.513 -119.346 321.493 -119.818 315.428L-144.743 317.365C-145.242 310.932 -145.578 304.454 -145.746 297.934L-120.755 297.289C-120.833 294.262 -120.872 291.224 -120.872 288.177C-120.872 285.129 -120.833 282.091 -120.755 279.064L-145.746 278.42C-145.578 271.899 -145.242 265.421 -144.743 258.988L-119.818 260.925C-119.346 254.86 -118.719 248.84 -117.941 242.869L-142.731 239.636C-141.888 233.175 -140.879 226.766 -139.709 220.415L-115.123 224.944C-114.023 218.972 -112.77 213.055 -111.368 207.196L-135.682 201.379C-134.167 195.049 -132.491 188.782 -130.657 182.582L-106.684 189.673C-104.963 183.858 -103.095 178.106 -101.082 172.422L-124.648 164.076C-122.477 157.947 -120.149 151.891 -117.671 145.913L-94.5777 155.49C-92.2562 149.892 -89.7921 144.367 -87.1898 138.921L-109.747 128.143C-106.945 122.279 -103.995 116.501 -100.899 110.812L-78.9394 122.76C-76.0436 117.438 -73.0122 112.199 -69.8496 107.05L-91.1534 93.9671C-87.7547 88.4326 -84.2151 82.9938 -80.5395 77.6559L-59.9488 91.8342C-56.5137 86.8455 -52.9511 81.9508 -49.2657 77.155L-69.0887 61.9218C-65.1337 56.7751 -61.047 51.735 -56.8335 46.8063L-37.8309 63.0513C-33.8964 58.4489 -29.8435 53.9507 -25.6767 49.5613L-43.8083 32.3495C-39.342 27.6445 -34.7538 23.0562 -30.0487 18.5899L-12.8369 36.7215C-8.44754 32.5548 -3.94928 28.5018 0.653091 24.5673L-15.5919 5.56469C-10.6633 1.35128 -5.62309 -2.73545 -0.476425 -6.69047L14.7567 13.1325C19.5526 9.4471 24.4472 5.88451 29.436 2.44939L15.2577 -18.1413C20.5956 -21.8169 26.0343 -25.3565 31.5689 -28.7552L44.6513 -7.45142C49.8013 -10.6139 55.0397 -13.6454 60.3621 -16.5412L48.414 -38.5012C54.1026 -41.5963 59.8811 -44.5471 65.7444 -47.3488L76.5228 -24.7916C81.969 -27.3939 87.4934 -29.858 93.0914 -32.1794L83.5151 -55.2726C89.4923 -57.7513 95.5483 -60.0784 101.678 -62.2493L110.024 -38.6835C115.708 -40.6964 121.46 -42.5652 127.275 -44.2854L120.184 -68.2586C126.383 -70.0924 132.651 -71.7689 138.981 -73.2834L144.798 -48.9696C150.657 -50.3713 156.574 -51.6244 162.546 -52.7245L158.016 -77.3108C164.368 -78.4809 170.777 -79.4896 177.237 -80.3323L180.471 -55.5423C186.442 -56.3212 192.461 -56.9482 198.526 -57.4194L196.59 -82.3443C203.023 -82.844 209.501 -83.18 216.021 -83.348L216.665 -58.3563C219.693 -58.4344 222.731 -58.4736 225.778 -58.4736C228.826 -58.4736 231.864 -58.4344 234.891 -58.3563L235.535 -83.348C242.056 -83.18 248.534 -82.844 254.967 -82.3443L253.03 -57.4194C259.095 -56.9482 265.115 -56.3212 271.086 -55.5424L274.319 -80.3323C280.78 -79.4896 287.188 -78.4809 293.54 -77.3108L289.011 -52.7245C294.982 -51.6244 300.9 -50.3714 306.759 -48.9696L312.576 -73.2834C318.906 -71.7689 325.173 -70.0924 331.373 -68.2586L324.282 -44.2854C330.097 -42.5652 335.849 -40.6965 341.533 -38.6836L349.878 -62.2494C356.008 -60.0785 362.064 -57.7513 368.042 -55.2726L358.465 -32.1795C364.063 -29.858 369.588 -27.3939 375.034 -24.7916L385.812 -47.3488C391.676 -44.5472 397.454 -41.5964 403.143 -38.5013L391.195 -16.5412C396.517 -13.6454 401.755 -10.614 406.905 -7.45145L419.988 -28.7552C425.522 -25.3565 430.961 -21.8169 436.299 -18.1413L422.121 2.44938C427.109 5.88448 432.004 9.44707 436.8 13.1325L452.033 -6.69049C457.18 -2.73548 462.22 1.35125 467.149 5.56465L450.904 24.5673C455.506 28.5018 460.004 32.5547 464.394 36.7215L481.605 18.5899C486.31 23.0562 490.899 27.6444 495.365 32.3495L477.233 49.5612C481.4 53.9507 485.453 58.4489 489.388 63.0513L508.39 46.8063C512.604 51.7349 516.69 56.7751 520.645 61.9218L500.822 77.1549C504.508 81.9508 508.07 86.8454 511.505 91.8342L532.096 77.6559C535.772 82.9938 539.311 88.4325 542.71 93.9671L521.406 107.049C524.569 112.199 527.6 117.438 530.496 122.76L552.456 110.812C555.551 116.501 558.502 122.279 561.304 128.143L538.746 138.921C541.349 144.367 543.813 149.892 546.134 155.49L569.227 145.913C571.706 151.891 574.033 157.947 576.204 164.076L552.638 172.422C554.651 178.106 556.52 183.858 558.24 189.673L582.214 182.582C584.047 188.782 585.724 195.049 587.238 201.379L562.924 207.196C564.326 213.055 565.579 218.972 566.679 224.944L591.266 220.415C592.436 226.766 593.445 233.175 594.287 239.635L569.497 242.869C570.276 248.84 570.903 254.86 571.374 260.925L596.299 258.988C596.799 265.421 597.135 271.899 597.303 278.42L572.311 279.064C572.389 282.091 572.429 285.129 572.429 288.177C572.429 291.224 572.389 294.262 572.311 297.289L597.303 297.934C597.135 304.454 596.799 310.932 596.299 317.365L571.374 315.428C570.903 321.493 570.276 327.513 569.497 333.484L594.287 336.717C593.445 343.178 592.436 349.587 591.266 355.938L566.679 351.409C565.579 357.381 564.326 363.298 562.924 369.157L587.238 374.974C585.724 381.304 584.047 387.571 582.214 393.771L558.24 386.68C556.52 392.495 554.651 398.247 552.638 403.931L576.204 412.277C574.033 418.406 571.706 424.462 569.228 430.44L546.134 420.863C543.813 426.461 541.349 431.986 538.747 437.432L561.304 448.21C558.502 454.074 555.551 459.852 552.456 465.541L530.496 453.593C527.6 458.915 524.569 464.154 521.406 469.304L542.71 482.386C539.311 487.92 535.772 493.359 532.096 498.697L511.505 484.519C508.07 489.508 504.508 494.402 500.822 499.198L520.645 514.431C516.69 519.578 512.604 524.618 508.39 529.547L489.388 513.302C485.453 517.904 481.4 522.402 477.233 526.792L495.365 544.004C490.899 548.709 486.31 553.297 481.605 557.763L464.394 539.632C460.004 543.798 455.506 547.851 450.904 551.786L467.149 570.788C462.22 575.002 457.18 579.089 452.033 583.044L436.8 563.221C432.004 566.906 427.109 570.469 422.121 573.904L436.299 594.494C430.961 598.17 425.522 601.71 419.988 605.108L406.905 583.805C401.755 586.967 396.517 589.998 391.195 592.894L403.143 614.854C397.454 617.949 391.676 620.9 385.812 623.702L375.034 601.145C369.588 603.747 364.063 606.211 358.465 608.533L368.042 631.626C362.064 634.104 356.008 636.432 349.879 638.602L341.533 615.037C335.849 617.049 330.097 618.918 324.282 620.638L331.373 644.612C325.173 646.445 318.906 648.122 312.576 649.636L306.759 625.323C300.9 626.724 294.983 627.977 289.011 629.078L293.54 653.664C287.188 654.834 280.78 655.843 274.319 656.685L271.086 631.895C265.115 632.674 259.095 633.301 253.03 633.773L254.967 658.697C248.534 659.197 242.056 659.533 235.535 659.701L234.891 634.709C231.864 634.787 228.826 634.827 225.778 634.827Z" stroke="url(#paint0_linear_28_207)" stroke-opacity="0.7" stroke-width="50" stroke-dasharray="20 20"/>
<path d="M164.73 84.6899V359.401H419.094" stroke="url(#paint1_linear_28_207)" stroke-opacity="0.7" stroke-width="50" stroke-linecap="round"/>
</g>
<defs>
<linearGradient id="paint0_linear_28_207" x1="-124" y1="-83" x2="480" y2="660" gradientUnits="userSpaceOnUse">
<stop stop-color="#E72121"/>
<stop offset="0.786458" stop-color="#821912"/>
</linearGradient>
<linearGradient id="paint1_linear_28_207" x1="80" y1="64" x2="372" y2="436" gradientUnits="userSpaceOnUse">
<stop stop-color="#E72121"/>
<stop offset="0.791667" stop-color="#821912"/>
</linearGradient>
</defs>
</svg>
