<svg width="990" height="1024" viewBox="0 0 990 1024" fill="none" xmlns="http://www.w3.org/2000/svg">
<g opacity="0.6">
<path d="M444.29 940.256C441.084 940.256 437.886 940.221 434.696 940.153L434.16 965.147C427.4 965.002 420.677 964.712 413.992 964.28L415.604 939.332C409.222 938.919 402.878 938.37 396.575 937.688L393.883 962.542C387.168 961.815 380.495 960.944 373.869 959.932L377.642 935.219C371.322 934.254 365.046 933.154 358.819 931.922L353.967 956.446C347.34 955.135 340.764 953.683 334.242 952.092L340.166 927.804C333.963 926.291 327.812 924.646 321.717 922.872L314.731 946.877C308.251 944.991 301.83 942.967 295.47 940.809L303.505 917.135C297.464 915.085 291.483 912.906 285.563 910.603L276.496 933.901C270.211 931.454 263.993 928.875 257.844 926.166L267.926 903.288C262.091 900.717 256.323 898.022 250.624 895.207L239.55 917.62C233.507 914.634 227.538 911.521 221.647 908.282L233.691 886.374C228.105 883.303 222.593 880.114 217.159 876.809L204.169 898.17C198.411 894.668 192.735 891.045 187.146 887.302L201.054 866.528C195.757 862.982 190.542 859.323 185.411 855.555L170.612 875.704C165.183 871.717 159.844 867.614 154.599 863.399L170.259 843.912C165.292 839.92 160.414 835.822 155.627 831.621L139.136 850.411C134.076 845.969 129.113 841.419 124.251 836.764L141.542 818.707C136.94 814.301 132.435 809.796 128.029 805.194L109.972 822.485C105.317 817.623 100.767 812.66 96.3252 807.6L115.115 791.109C110.914 786.322 106.816 781.444 102.824 776.477L83.3368 792.137C79.1218 786.892 75.0189 781.553 71.0315 776.124L91.1809 761.325C87.4128 756.195 83.754 750.979 80.2078 745.682L59.4336 759.59C55.6914 754.001 52.0678 748.325 48.5663 742.567L69.927 729.577C66.6222 724.143 63.4326 718.631 60.3616 713.045L38.4541 725.089C35.2155 719.198 32.1015 713.229 29.1156 707.186L51.5291 696.112C48.7136 690.413 46.0186 684.645 43.4475 678.81L20.5702 688.891C17.8609 682.743 15.2815 676.525 12.8355 670.24L36.1333 661.173C33.8296 655.253 31.6511 649.272 29.601 643.231L5.92725 651.266C3.76902 644.906 1.74529 638.485 -0.140572 632.005L23.8636 625.019C22.0896 618.923 20.4446 612.773 18.9318 606.57L-5.35626 612.494C-6.94695 605.972 -8.39944 599.396 -9.71046 592.769L14.8142 587.917C13.5823 581.69 12.4823 575.414 11.5174 569.094L-13.1963 572.866C-14.2078 566.24 -15.0788 559.568 -15.8062 552.853L9.04842 550.16C8.36575 543.858 7.8167 537.514 7.40427 531.132L-17.5437 532.744C-17.9757 526.059 -18.2658 519.335 -18.4109 512.576L6.58332 512.039C6.51484 508.85 6.48041 505.652 6.48041 502.446C6.48041 499.239 6.51484 496.041 6.58332 492.852L-18.4109 492.315C-18.2658 485.556 -17.9757 478.833 -17.5437 472.148L7.40427 473.76C7.81671 467.378 8.36575 461.034 9.04842 454.731L-15.8062 452.039C-15.0788 445.324 -14.2078 438.651 -13.1963 432.025L11.5174 435.798C12.4823 429.478 13.5823 423.202 14.8142 416.975L-9.71045 412.123C-8.39944 405.496 -6.94695 398.92 -5.35626 392.398L18.9318 398.322C20.4446 392.119 22.0896 385.968 23.8636 379.873L-0.140579 372.887C1.74527 366.407 3.769 359.985 5.92723 353.626L29.601 361.661C31.6511 355.62 33.8296 349.638 36.1332 343.719L12.8354 334.652C15.2815 328.367 17.8609 322.149 20.5702 316L43.4475 326.081C46.0186 320.247 48.7136 314.478 51.529 308.78L29.1156 297.706C32.1015 291.663 35.2155 285.694 38.454 279.803L60.3615 291.847C63.4325 286.261 66.6221 280.749 69.9269 275.314L48.5662 262.325C52.0677 256.567 55.6914 250.891 59.4336 245.302L80.2078 259.21C83.7539 253.913 87.4128 248.697 91.1809 243.567L71.0315 228.768C75.0188 223.339 79.1218 218 83.3367 212.755L102.824 228.415C106.816 223.448 110.914 218.569 115.115 213.783L96.3252 197.292C100.767 192.231 105.317 187.269 109.972 182.407L128.029 199.697C132.435 195.096 136.94 190.591 141.541 186.185L124.251 168.128C129.113 163.473 134.076 158.923 139.136 154.481L155.627 173.271C160.413 169.07 165.292 164.972 170.259 160.98L154.599 141.493C159.844 137.278 165.183 133.175 170.612 129.187L185.411 149.337C190.541 145.569 195.757 141.91 201.054 138.364L187.146 117.589C192.735 113.847 198.411 110.224 204.169 106.722L217.159 128.083C222.593 124.778 228.105 121.588 233.691 118.517L221.647 96.6098C227.538 93.3713 233.507 90.2573 239.55 87.2714L250.624 109.685C256.323 106.869 262.091 104.174 267.926 101.603L257.844 78.726C263.993 76.0167 270.211 73.4373 276.496 70.9913L285.563 94.2891C291.482 91.9854 297.464 89.8069 303.505 87.7568L295.47 64.0831C301.83 61.9248 308.251 59.9011 314.731 58.0152L321.717 82.0194C327.812 80.2454 333.963 78.6004 340.166 77.0876L334.242 52.7996C340.764 51.2089 347.34 49.7564 353.967 48.4454L358.819 72.9701C365.046 71.7381 371.322 70.6381 377.642 69.6732L373.87 44.9596C380.496 43.948 387.168 43.077 393.883 42.3496L396.575 67.2042C402.878 66.5216 409.222 65.9725 415.604 65.5601L413.992 40.6121C420.677 40.1801 427.4 39.8901 434.16 39.7449L434.697 64.7391C437.886 64.6707 441.084 64.6362 444.29 64.6362C447.497 64.6362 450.695 64.6707 453.884 64.7391L454.421 39.7449C461.18 39.8901 467.903 40.1801 474.588 40.6121L472.976 65.5601C479.358 65.9725 485.702 66.5216 492.005 67.2042L494.697 42.3496C501.412 43.077 508.085 43.948 514.711 44.9596L510.938 69.6732C517.258 70.6381 523.534 71.7381 529.761 72.9701L534.613 48.4454C541.24 49.7564 547.816 51.2089 554.338 52.7996L548.414 77.0876C554.617 78.6004 560.768 80.2454 566.863 82.0194L573.849 58.0152C580.329 59.9011 586.751 61.9248 593.11 64.0831L585.075 87.7568C591.116 89.8069 597.098 91.9854 603.017 94.2891L612.084 70.9912C618.369 73.4373 624.587 76.0167 630.736 78.726L620.655 101.603C626.489 104.174 632.258 106.869 637.956 109.685L649.03 87.2714C655.073 90.2573 661.042 93.3713 666.933 96.6098L654.889 118.517C660.475 121.588 665.987 124.778 671.422 128.083L684.411 106.722C690.169 110.224 695.845 113.847 701.434 117.589L687.526 138.364C692.823 141.91 698.039 145.569 703.169 149.337L717.968 129.187C723.397 133.175 728.736 137.278 733.981 141.493L718.321 160.98C723.288 164.972 728.167 169.07 732.953 173.271L749.444 154.481C754.504 158.923 759.467 163.473 764.329 168.128L747.039 186.185C751.64 190.591 756.145 195.096 760.551 199.697L778.608 182.407C783.263 187.269 787.813 192.231 792.255 197.292L773.465 213.783C777.666 218.569 781.764 223.448 785.756 228.415L805.243 212.755C809.458 218 813.561 223.339 817.549 228.768L797.399 243.567C801.167 248.697 804.826 253.913 808.372 259.21L829.147 245.302C832.889 250.891 836.512 256.567 840.014 262.325L818.653 275.314C821.958 280.749 825.148 286.261 828.219 291.847L850.126 279.803C853.365 285.694 856.479 291.662 859.465 297.706L837.051 308.78C839.867 314.478 842.561 320.247 845.133 326.081L868.01 316C870.719 322.148 873.299 328.367 875.745 334.652L852.447 343.719C854.75 349.638 856.929 355.62 858.979 361.66L882.653 353.626C884.811 359.985 886.835 366.407 888.721 372.887L864.717 379.873C866.491 385.968 868.136 392.119 869.648 398.322L893.936 392.398C895.527 398.92 896.98 405.496 898.291 412.123L873.766 416.975C874.998 423.202 876.098 429.478 877.063 435.798L901.776 432.025C902.788 438.651 903.659 445.324 904.386 452.039L879.532 454.731C880.214 461.034 880.763 467.378 881.176 473.76L906.124 472.148C906.556 478.833 906.846 485.556 906.991 492.316L881.997 492.852C882.065 496.041 882.1 499.239 882.1 502.446C882.1 505.652 882.065 508.85 881.997 512.039L906.991 512.576C906.846 519.335 906.556 526.059 906.124 532.744L881.176 531.132C880.763 537.514 880.214 543.858 879.532 550.161L904.386 552.853C903.659 559.568 902.788 566.24 901.776 572.866L877.063 569.094C876.098 575.414 874.998 581.69 873.766 587.917L898.291 592.769C896.98 599.396 895.527 605.972 893.936 612.494L869.648 606.57C868.135 612.773 866.491 618.923 864.717 625.019L888.721 632.005C886.835 638.485 884.811 644.906 882.653 651.266L858.979 643.231C856.929 649.272 854.751 655.253 852.447 661.173L875.745 670.24C873.299 676.525 870.719 682.743 868.01 688.891L845.133 678.81C842.562 684.645 839.867 690.413 837.051 696.112L859.465 707.186C856.479 713.229 853.365 719.198 850.126 725.089L828.219 713.044C825.148 718.63 821.958 724.143 818.653 729.577L840.014 742.567C836.512 748.325 832.889 754 829.147 759.59L808.372 745.682C804.826 750.979 801.167 756.194 797.399 761.325L817.549 776.124C813.561 781.553 809.458 786.891 805.243 792.137L785.756 776.476C781.764 781.444 777.666 786.322 773.465 791.109L792.255 807.6C787.813 812.66 783.263 817.623 778.608 822.485L760.551 805.194C756.145 809.796 751.64 814.301 747.039 818.707L764.329 836.764C759.467 841.419 754.505 845.969 749.444 850.411L732.953 831.621C728.167 835.822 723.288 839.92 718.321 843.912L733.981 863.399C728.736 867.614 723.397 871.717 717.968 875.704L703.169 855.555C698.039 859.323 692.823 862.982 687.526 866.528L701.435 887.302C695.845 891.044 690.169 894.668 684.411 898.17L671.422 876.809C665.987 880.114 660.475 883.303 654.889 886.374L666.933 908.282C661.042 911.52 655.073 914.634 649.03 917.62L637.956 895.207C632.258 898.022 626.489 900.717 620.655 903.288L630.736 926.166C624.587 928.875 618.369 931.454 612.084 933.9L603.017 910.603C597.098 912.906 591.116 915.085 585.075 917.135L593.11 940.809C586.751 942.967 580.329 944.991 573.849 946.877L566.863 922.872C560.768 924.646 554.617 926.291 548.414 927.804L554.338 952.092C547.816 953.683 541.24 955.135 534.613 956.446L529.761 931.922C523.534 933.154 517.258 934.254 510.938 935.219L514.711 959.932C508.085 960.944 501.412 961.815 494.697 962.542L492.005 937.688C485.702 938.37 479.358 938.919 472.976 939.332L474.588 964.28C467.903 964.712 461.18 965.002 454.42 965.147L453.884 940.153C450.695 940.221 447.497 940.256 444.29 940.256Z" stroke="url(#paint0_linear_28_238)" stroke-opacity="0.7" stroke-width="50" stroke-dasharray="20 20"/>
<path d="M368.268 249.048V591.141H685.023" stroke="url(#paint1_linear_28_238)" stroke-opacity="0.7" stroke-width="50" stroke-linecap="round"/>
</g>
<defs>
<linearGradient id="paint0_linear_28_238" x1="8.71701" y1="40.226" x2="760.868" y2="965.471" gradientUnits="userSpaceOnUse">
<stop stop-color="#030227"/>
<stop offset="0.417353" stop-color="#21C3E7"/>
<stop offset="0.802083" stop-color="#2134E7"/>
</linearGradient>
<linearGradient id="paint1_linear_28_238" x1="262.755" y1="223.283" x2="626.377" y2="686.528" gradientUnits="userSpaceOnUse">
<stop stop-color="#030227"/>
<stop offset="0.0001" stop-color="#030227"/>
<stop offset="0.791667" stop-color="#2134E7"/>
</linearGradient>
</defs>
</svg>
